<?xml version="1.0" standalone="no"?>
<!DOCTYPE svg PUBLIC "-//W3C//DTD SVG 20010904//EN"
 "http://www.w3.org/TR/2001/REC-SVG-20010904/DTD/svg10.dtd">
<svg version="1.0" xmlns="http://www.w3.org/2000/svg"
 width="512.000000pt" height="512.000000pt" viewBox="0 0 512.000000 512.000000"
 preserveAspectRatio="xMidYMid meet">

<g transform="translate(0.000000,512.000000) scale(0.100000,-0.100000)"
fill="#000000" stroke="none">
<path d="M2395 4339 c-250 -37 -478 -151 -661 -334 -177 -175 -285 -382 -329
-628 -23 -128 -16 -353 14 -473 160 -639 794 -1021 1431 -863 415 104 745 438
851 863 26 105 36 323 20 436 -38 258 -151 483 -335 665 -187 186 -411 298
-671 335 -83 11 -236 11 -320 -1z m365 -224 c208 -44 402 -162 540 -328 74
-89 162 -262 190 -376 125 -502 -164 -1004 -667 -1158 -80 -24 -103 -27 -258
-27 -149 -1 -180 2 -250 22 -324 94 -571 329 -668 637 -143 453 64 941 488
1152 96 48 198 77 340 97 51 7 212 -4 285 -19z"/>
<path d="M2330 1570 c-499 -33 -959 -158 -1368 -370 -121 -63 -382 -225 -382
-237 0 -3 28 -43 62 -89 l62 -83 45 32 c398 284 939 474 1506 527 142 13 468
13 615 0 553 -51 1105 -244 1501 -527 l45 -32 62 83 c34 46 62 86 62 89 0 2
-56 41 -124 86 -418 274 -917 447 -1456 505 -174 19 -471 27 -630 16z"/>
</g>
</svg>
